<svg width="242" height="86" viewBox="0 0 242 86" fill="none" xmlns="http://www.w3.org/2000/svg">
<path d="M71.0221 0.525373C71.0221 -0.469627 74.079 -0.0086236 77.804 1.54738C83.429 3.89738 86.917 7.82638 88.64 13.7534C91.181 22.4944 89.5461 28.3174 78.3271 50.4774C71.5471 63.8684 68.017 72.7534 68.028 76.4014C68.032 77.5524 68.707 79.7834 69.528 81.3584C71.618 85.3654 71.427 85.9944 68.126 85.9944C64.296 85.9944 59.59 80.6454 57.638 74.0744C55.453 66.7154 57.453 59.8454 68.246 37.6294C75.767 22.1494 77.485 17.7444 77.822 13.0764C78.22 7.58638 78.108 7.27737 74.628 4.22137C72.645 2.48037 71.0221 0.816373 71.0221 0.525373Z" fill="#FF0000"/>
<path d="M87.022 2.25437C87.022 3.07637 87.653 4.27336 88.425 4.91436C89.197 5.55436 91.03 8.53436 92.499 11.5364L95.169 16.9944L104.346 16.9964C115.036 16.9974 119.183 18.5664 122.841 23.9944C124.709 26.7654 125.111 28.4524 124.773 32.0924C123.883 41.6594 118.358 44.9944 103.395 44.9944C94.668 44.9944 93.87 44.8374 94.498 43.2444C96.792 37.4284 96.809 23.4944 94.522 23.4944C93.972 23.4944 93.227 25.7444 92.866 28.4944C91.94 35.5594 89.813 40.8864 83.1 52.9544C79.876 58.7514 76.514 65.2364 75.63 67.3664C73.295 72.9904 73.555 78.9284 76.277 82.1544C78.352 84.6124 78.958 84.7734 84.272 84.2804L90.022 83.7464V73.4524C90.022 67.7904 90.295 62.4464 90.629 61.5764C91.14 60.2444 93.323 59.9944 104.451 59.9944C114.03 59.9944 118.979 59.5474 122.438 58.3684L127.211 56.7424L126.367 52.1184C124.27 40.6384 126.832 26.4144 132.554 17.7674C135.771 12.9054 135.672 11.7214 131.772 8.42536C124.954 2.66236 120.943 1.64237 103.272 1.18237C89.33 0.819373 87.022 0.971371 87.022 2.25437Z" fill="#FF0000"/>
<path d="M160.426 2.06734C152.717 3.37734 146.551 6.41934 140.913 11.6924C134.783 17.4264 131.374 23.8204 129.357 33.3684C126.495 46.9134 129.346 59.8554 137.464 70.1674C141.008 74.6684 143.527 76.6294 149.669 79.6674L157.408 83.4944L177.715 83.8184C188.884 83.9964 198.02 83.7714 198.016 83.3184C198.013 82.8654 196.733 79.3444 195.172 75.4944L192.333 68.4944L176.928 67.9674C163.626 67.5124 160.955 67.1404 157.369 65.2464C148.453 60.5374 144.389 52.0884 145.25 40.0564C145.81 32.2204 149.038 25.5434 153.96 22.0384C159.893 17.8144 164.392 16.9944 181.648 16.9944C194.121 16.9944 198.004 16.6964 197.946 15.7444C197.904 15.0574 196.662 11.5694 195.186 7.99435L192.502 1.49434L179.012 1.34734C171.592 1.26734 163.229 1.59134 160.426 2.06734Z" fill="#FF0000"/>
<path d="M0.261002 43.2444L0.522003 84.4944L6.48 84.8004C17.777 85.3804 16.831 87.8704 16.666 58.0024C16.587 43.6994 16.747 32.0124 17.022 32.0334C17.297 32.0534 21.78 37.5654 26.984 44.2824C47.015 70.1364 58.205 83.9944 59.051 83.9944C59.534 83.9944 58.83 81.6314 57.486 78.7444C53.054 69.2264 54.628 60.4774 64.111 41.9154L69.022 32.3024V17.1484V1.99438H61.04H53.058L52.79 26.0944L52.522 50.1934L41.474 36.8444C35.397 29.5014 26.871 18.9944 22.526 13.4944C18.182 7.9944 14.154 3.16338 13.575 2.75938C12.996 2.35538 9.705 2.01838 6.261 2.00938L0 1.99438L0.261002 43.2444Z" fill="#FF0000"/>
<path d="M167.187 40.5913C170.302 38.4093 174.614 38.5863 177.022 40.9943C179.691 43.6633 179.544 44.9943 176.581 44.9943C175.238 44.9943 173.862 44.5443 173.522 43.9943C172.751 42.7473 170.022 42.6733 170.022 43.8993C170.022 44.3973 171.934 45.4093 174.272 46.1493C178.073 47.3523 178.557 47.8593 178.851 50.9503C179.252 55.1683 177.189 56.9943 172.022 56.9943C167.895 56.9943 165.305 55.3843 164.841 52.5303C164.437 50.0413 167.957 49.1263 169.224 51.3913C170.125 53.0003 174.022 53.6723 174.022 52.2183C174.022 51.7913 172.11 50.5543 169.772 49.4683C164.605 47.0683 163.476 43.1903 167.187 40.5913Z" fill="#FF0000"/>
<path d="M182.945 41.9174C180.95 43.9124 180.022 45.8424 180.022 47.9944C180.022 52.3604 184.717 56.9944 189.14 56.9944C193.887 56.9944 198.022 52.7584 198.022 47.8964C198.022 44.9654 197.367 43.6204 194.945 41.5834C190.778 38.0764 186.672 38.1914 182.945 41.9174Z" fill="#FF0000"/>
<path d="M199.444 40.3384C199.16 41.0774 199.062 45.0144 199.225 49.0884L199.522 56.4944L207.287 56.7864C213.547 57.0224 215.167 56.7804 215.644 55.5364C216.409 53.5424 221.622 53.5094 222.384 55.4944C223.118 57.4084 227.022 57.4644 227.022 55.5614C227.022 54.7734 225.699 50.8364 224.082 46.8114C221.698 40.8774 220.733 39.4944 218.975 39.4944C217.213 39.4944 216.181 40.9884 213.45 47.4944C211.603 51.8944 210.076 54.9614 210.057 54.3104C210.038 53.6594 208.784 52.9844 207.272 52.8104C204.609 52.5044 204.513 52.2804 204.226 45.7444C203.965 39.7764 203.701 38.9944 201.945 38.9944C200.853 38.9944 199.727 39.5994 199.444 40.3384Z" fill="#FF0000"/>
<path d="M228.444 40.3384C229.272 38.1794 236.666 38.6384 239.022 40.9944C241.438 43.4104 241.559 45.7824 239.422 48.8334C237.956 50.9264 237.956 51.2644 239.422 52.8844C240.302 53.8564 241.022 55.1794 241.022 55.8234C241.022 57.8874 236.331 57.0874 234.696 54.7444L233.127 52.4944L233.074 54.8144C233.033 56.6364 232.539 57.0654 230.772 56.8144C228.702 56.5204 228.498 55.9024 228.225 49.0884C228.062 45.0144 228.16 41.0774 228.444 40.3384Z" fill="#FF0000"/>
</svg>
